<svg viewBox="0 0 24 24"  xmlns="http://www.w3.org/2000/svg" style="display:none">

	<symbol viewBox="0 0 52 52" id="flash">
		<path d="M31.9091 3.54547L13 30.7273H21.2727L19.5 47.8637L40.1818 21.8637H30.1364L31.9091 3.54547Z" fill="currentColor"/>	
	</symbol>

	<symbol viewBox="0 0 52 52" id="tel">
		<path d="M37.0114 30.8636L29.5971 32.3C24.589 29.7868 21.4954 26.9 19.6951 22.4L21.0813 14.9658L18.4609 8L8 8C8 8 8.43555 22.8428 17.8947 32.3C27.7967 42.2 44 44 44 44L44 33.5262L37.0114 30.8636Z" fill="currentColor"/>
	</symbol>

	<symbol viewBox="0 0 52 52" id="chat">
		<path d="M26 44C35.9411 44 44 35.9411 44 26C44 16.0589 35.9411 8 26 8C16.0589 8 8 16.0589 8 26C8 29.2786 8.87655 32.3524 10.4081 35L8.9 43.1L17 41.5919C19.6476 43.1235 22.7214 44 26 44Z" fill="currentColor"/>	
	</symbol>

	<symbol viewBox="0 0 52 52" id="email">
		<path fill-rule="evenodd" clip-rule="evenodd" d="M5.14307 11V40.2041H46.8632V11H5.14307ZM16.4361 18.1152L15.2073 17.255L13.4869 19.7127L14.7157 20.5729L25.1458 27.8739L26.006 28.476L26.8662 27.8739L37.2962 20.5729L38.525 19.7127L36.8046 17.255L35.5758 18.1152L26.006 24.8141L16.4361 18.1152Z" fill="currentColor"/>
	</symbol>

	<symbol viewBox="0 0 24 24" id="time">
		<path d="M12 6L12 12L18 12" stroke="currentColor" stroke-width="1.5" stroke-linecap="round" stroke-linejoin="round"/>
		<path d="M12 22C17.5228 22 22 17.5228 22 12C22 6.47715 17.5228 2 12 2C6.47715 2 2 6.47715 2 12C2 17.5228 6.47715 22 12 22Z" stroke="currentColor" stroke-width="1.5" stroke-linecap="round" stroke-linejoin="round"/>
	</symbol>

	<symbol viewBox="0 0 24 24" id="time-2">
		<path d="M12 2C6.49 2 2 6.49 2 12C2 17.51 6.49 22 12 22C17.51 22 22 17.51 22 12C22 6.49 17.51 2 12 2ZM16.35 15.57C16.21 15.81 15.96 15.94 15.7 15.94C15.57 15.94 15.44 15.91 15.32 15.83L12.22 13.98C11.45 13.52 10.88 12.51 10.88 11.62V7.52C10.88 7.11 11.22 6.77 11.63 6.77C12.04 6.77 12.38 7.11 12.38 7.52V11.62C12.38 11.98 12.68 12.51 12.99 12.69L16.09 14.54C16.45 14.75 16.57 15.21 16.35 15.57Z" fill="currentColor"/>	
	</symbol>

	<symbol viewBox="0 0 24 24" id="lang">
		<path d="M7.64859 20.91C7.61859 20.91 7.57859 20.93 7.54859 20.93C5.60859 19.97 4.02859 18.38 3.05859 16.44C3.05859 16.41 3.07859 16.37 3.07859 16.34C4.29859 16.7 5.55859 16.97 6.80859 17.18C7.02859 18.44 7.28859 19.69 7.64859 20.91Z" fill="currentColor"/>
		<path d="M20.9391 16.45C19.9491 18.44 18.2991 20.05 16.2891 21.02C16.6691 19.75 16.9891 18.47 17.1991 17.18C18.4591 16.97 19.6991 16.7 20.9191 16.34C20.9091 16.38 20.9391 16.42 20.9391 16.45Z" fill="currentColor"/>
		<path d="M21.0191 7.70986C19.7591 7.32986 18.4891 7.01986 17.1991 6.79986C16.9891 5.50986 16.6791 4.22986 16.2891 2.97986C18.3591 3.96986 20.0291 5.63986 21.0191 7.70986Z" fill="currentColor"/>
		<path d="M7.64949 3.09006C7.28949 4.31006 7.02949 5.55006 6.81949 6.81006C5.52949 7.01006 4.24949 7.33006 2.97949 7.71006C3.94949 5.70006 5.55949 4.05006 7.54949 3.06006C7.57949 3.06006 7.61949 3.09006 7.64949 3.09006Z" fill="currentColor"/>
		<path d="M15.4907 6.58988C13.1707 6.32988 10.8307 6.32988 8.51074 6.58988C8.76074 5.21988 9.08074 3.84988 9.53074 2.52988C9.55074 2.44988 9.54074 2.38988 9.55074 2.30988C10.3407 2.11988 11.1507 1.99988 12.0007 1.99988C12.8407 1.99988 13.6607 2.11988 14.4407 2.30988C14.4507 2.38988 14.4507 2.44988 14.4707 2.52988C14.9207 3.85988 15.2407 5.21988 15.4907 6.58988Z" fill="currentColor"/>
		<path d="M6.59098 15.49C5.21098 15.24 3.85098 14.92 2.53098 14.47C2.45098 14.45 2.39098 14.46 2.31098 14.45C2.12098 13.66 2.00098 12.85 2.00098 12C2.00098 11.16 2.12098 10.34 2.31098 9.56001C2.39098 9.55001 2.45098 9.55001 2.53098 9.53001C3.86098 9.09001 5.21098 8.76001 6.59098 8.51001C6.34098 10.83 6.34098 13.17 6.59098 15.49Z" fill="currentColor"/>
		<path d="M22.0011 12C22.0011 12.85 21.8811 13.66 21.6911 14.45C21.6111 14.46 21.5511 14.45 21.4711 14.47C20.1411 14.91 18.7811 15.24 17.4111 15.49C17.6711 13.17 17.6711 10.83 17.4111 8.51001C18.7811 8.76001 20.1511 9.08001 21.4711 9.53001C21.5511 9.55001 21.6111 9.56001 21.6911 9.56001C21.8811 10.35 22.0011 11.16 22.0011 12Z" fill="currentColor"/>
		<path d="M15.4907 17.41C15.2407 18.79 14.9207 20.15 14.4707 21.47C14.4507 21.55 14.4507 21.61 14.4407 21.69C13.6607 21.88 12.8407 22 12.0007 22C11.1507 22 10.3407 21.88 9.55074 21.69C9.54074 21.61 9.55074 21.55 9.53074 21.47C9.09074 20.14 8.76074 18.79 8.51074 17.41C9.67074 17.54 10.8307 17.63 12.0007 17.63C13.1707 17.63 14.3407 17.54 15.4907 17.41Z" fill="currentColor"/>
		<path d="M15.7643 15.7632C13.2632 16.0788 10.7387 16.0788 8.23765 15.7632C7.92209 13.2621 7.92209 10.7376 8.23765 8.23655C10.7387 7.92099 13.2632 7.92099 15.7643 8.23655C16.0799 10.7376 16.0799 13.2621 15.7643 15.7632Z" fill="currentColor"/>	
	</symbol>

	<symbol viewBox="0 0 26 26" id="instagram">
		<path d="M13 7.6747C14.7229 7.6747 14.9578 7.6747 15.6627 7.6747C16.2892 7.6747 16.6024 7.83133 16.8374 7.90964C17.1506 8.06627 17.3855 8.14458 17.6205 8.37952C17.8554 8.61446 18.012 8.8494 18.0904 9.16265C18.1687 9.39759 18.247 9.71084 18.3253 10.3374C18.3253 11.0422 18.3253 11.1988 18.3253 13C18.3253 14.8012 18.3253 14.9578 18.3253 15.6627C18.3253 16.2892 18.1687 16.6024 18.0904 16.8374C17.9337 17.1506 17.8554 17.3855 17.6205 17.6205C17.3855 17.8554 17.1506 18.012 16.8374 18.0904C16.6024 18.1687 16.2892 18.247 15.6627 18.3253C14.9578 18.3253 14.8012 18.3253 13 18.3253C11.1988 18.3253 11.0422 18.3253 10.3374 18.3253C9.71084 18.3253 9.39759 18.1687 9.16265 18.0904C8.8494 17.9337 8.61446 17.8554 8.37952 17.6205C8.14458 17.3855 7.98795 17.1506 7.90964 16.8374C7.83133 16.6024 7.75301 16.2892 7.6747 15.6627C7.6747 14.9578 7.6747 14.8012 7.6747 13C7.6747 11.1988 7.6747 11.0422 7.6747 10.3374C7.6747 9.71084 7.83133 9.39759 7.90964 9.16265C8.06627 8.8494 8.14458 8.61446 8.37952 8.37952C8.61446 8.14458 8.8494 7.98795 9.16265 7.90964C9.39759 7.83133 9.71084 7.75301 10.3374 7.6747C11.0422 7.6747 11.2771 7.6747 13 7.6747ZM13 6.5C11.1988 6.5 11.0422 6.5 10.3374 6.5C9.63253 6.5 9.16265 6.65663 8.77109 6.81325C8.37952 6.96988 7.98795 7.20482 7.59639 7.59639C7.20482 7.98795 7.04819 8.30121 6.81325 8.77109C6.65663 9.16265 6.57831 9.63253 6.5 10.3374C6.5 11.0422 6.5 11.2771 6.5 13C6.5 14.8012 6.5 14.9578 6.5 15.6627C6.5 16.3675 6.65663 16.8374 6.81325 17.2289C6.96988 17.6205 7.20482 18.012 7.59639 18.4036C7.98795 18.7952 8.30121 18.9518 8.77109 19.1867C9.16265 19.3434 9.63253 19.4217 10.3374 19.5C11.0422 19.5 11.2771 19.5 13 19.5C14.7229 19.5 14.9578 19.5 15.6627 19.5C16.3675 19.5 16.8374 19.3434 17.2289 19.1867C17.6205 19.0301 18.012 18.7952 18.4036 18.4036C18.7952 18.012 18.9518 17.6988 19.1867 17.2289C19.3434 16.8374 19.4217 16.3675 19.5 15.6627C19.5 14.9578 19.5 14.7229 19.5 13C19.5 11.2771 19.5 11.0422 19.5 10.3374C19.5 9.63253 19.3434 9.16265 19.1867 8.77109C19.0301 8.37952 18.7952 7.98795 18.4036 7.59639C18.012 7.20482 17.6988 7.04819 17.2289 6.81325C16.8374 6.65663 16.3675 6.57831 15.6627 6.5C14.9578 6.5 14.8012 6.5 13 6.5Z" fill="currentColor"/>
		<path d="M13 9.63253C11.1205 9.63253 9.63253 11.1205 9.63253 13C9.63253 14.8795 11.1205 16.3675 13 16.3675C14.8795 16.3675 16.3675 14.8795 16.3675 13C16.3675 11.1205 14.8795 9.63253 13 9.63253ZM13 15.1928C11.8253 15.1928 10.8072 14.253 10.8072 13C10.8072 11.8253 11.747 10.8072 13 10.8072C14.1747 10.8072 15.1928 11.747 15.1928 13C15.1928 14.1747 14.1747 15.1928 13 15.1928Z" fill="currentColor"/>
		<path d="M16.4458 10.3374C16.8783 10.3374 17.2289 9.98673 17.2289 9.55422C17.2289 9.12171 16.8783 8.77109 16.4458 8.77109C16.0133 8.77109 15.6627 9.12171 15.6627 9.55422C15.6627 9.98673 16.0133 10.3374 16.4458 10.3374Z" fill="currentColor"/>	
	</symbol>

	<symbol viewBox="0 0 26 26" id="linkedin">
		<path d="M18.2 13.4837V17.0689H16.1013V13.7023C16.1013 12.8716 15.7952 12.3032 15.052 12.3032C14.4836 12.3032 14.1338 12.6967 14.0026 13.0464C13.9589 13.1776 13.9152 13.3525 13.9152 13.5711V17.0689H11.8165C11.8165 17.0689 11.8603 11.385 11.8165 10.8166H13.9152V11.6911C14.1775 11.2538 14.7022 10.6417 15.7952 10.6417C17.1506 10.6417 18.2 11.5599 18.2 13.4837ZM9.63044 7.7998C8.93089 7.7998 8.44995 8.28075 8.44995 8.89285C8.44995 9.50496 8.88717 9.9859 9.58672 9.9859C10.33 9.9859 10.7672 9.50496 10.7672 8.89285C10.8109 8.23702 10.3737 7.7998 9.63044 7.7998ZM8.58112 17.0689H10.6798V10.8166H8.58112V17.0689Z" fill="currentColor"/>	
	</symbol>

	<symbol viewBox="0 0 26 26" id="youtube">
		<path fill-rule="evenodd" clip-rule="evenodd" d="M7.32072 17.5869C7.06574 17.5115 6.8331 17.3773 6.64242 17.1957C6.45174 17.014 6.30861 16.7903 6.22511 16.5433C5.748 15.2668 5.60663 9.9365 6.52552 8.88425C6.83134 8.54194 7.26313 8.33119 7.72715 8.29774C10.1923 8.03899 17.8085 8.07349 18.6832 8.38399C18.9292 8.46191 19.154 8.59317 19.3406 8.76793C19.5273 8.94269 19.6711 9.15643 19.7611 9.39313C20.2824 10.7128 20.3001 15.5083 19.6904 16.7762C19.5287 17.1062 19.2579 17.3735 18.9217 17.5352C18.0028 17.9837 8.54001 17.9751 7.32072 17.5869ZM11.2348 15.0857L15.6526 12.8431L11.2348 10.5834V15.0857Z" fill="currentColor"/>	
	</symbol>

	<symbol viewBox="0 0 26 26" id="whatsapp">
		<path d="M18.1524 7.84023C16.8683 6.56055 15.1561 5.84961 13.3488 5.84961C9.59146 5.84961 6.54756 8.88294 6.54756 12.6272C6.54756 13.8121 6.88049 14.997 7.45122 15.9923L6.5 19.4996L10.1146 18.5517C11.1134 19.073 12.2073 19.3574 13.3488 19.3574C17.1061 19.3574 20.15 16.3241 20.15 12.5798C20.1024 10.8262 19.4366 9.11992 18.1524 7.84023ZM16.6305 15.0444C16.4878 15.4236 15.8219 15.8027 15.489 15.8501C15.2037 15.8975 14.8232 15.8975 14.4427 15.8027C14.2049 15.7079 13.872 15.6132 13.4915 15.4236C11.7793 14.7126 10.6854 13.0064 10.5902 12.8642C10.4951 12.7694 9.87683 11.9637 9.87683 11.1105C9.87683 10.2574 10.3049 9.87825 10.4476 9.68867C10.5902 9.49909 10.7805 9.49909 10.9232 9.49909C11.0183 9.49909 11.161 9.49909 11.2561 9.49909C11.3512 9.49909 11.4939 9.45169 11.6366 9.78346C11.7793 10.1152 12.1122 10.9684 12.1598 11.0158C12.2073 11.1105 12.2073 11.2053 12.1598 11.3001C12.1122 11.3949 12.0646 11.4897 11.9695 11.5845C11.8744 11.6793 11.7793 11.8215 11.7317 11.8689C11.6366 11.9637 11.5415 12.0585 11.6366 12.2007C11.7317 12.3902 12.0646 12.9116 12.5878 13.3855C13.2537 13.9543 13.7768 14.1439 13.9671 14.2387C14.1573 14.3335 14.2524 14.2861 14.3476 14.1913C14.4427 14.0965 14.7756 13.7173 14.8707 13.5277C14.9659 13.3382 15.1085 13.3855 15.2512 13.4329C15.3939 13.4803 16.25 13.9069 16.3927 14.0017C16.5829 14.0965 16.678 14.1439 16.7256 14.1913C16.7732 14.3335 16.7732 14.6652 16.6305 15.0444Z" fill="currentColor"/>	
	</symbol>

	<symbol viewBox="0 0 26 26" id="facebook">
		<path d="M14.0772 13.2373H16.4966L16.8765 10.7646H14.0767V9.41307C14.0767 8.38584 14.4103 7.47495 15.3654 7.47495H16.9001V5.31703C16.6305 5.28039 16.0602 5.2002 14.9826 5.2002C12.7324 5.2002 11.4132 6.39574 11.4132 9.1195V10.7646H9.1001V13.2373H11.4132V20.0339C11.8713 20.1032 12.3353 20.1502 12.8116 20.1502C13.2422 20.1502 13.6624 20.1106 14.0772 20.0542V13.2373Z" fill="currentColor"/>	
	</symbol>

	<symbol viewBox="0 0 14 14" id="check">
		<path fill-rule="evenodd" clip-rule="evenodd" d="M7 0C3.13401 0 0 3.13401 0 7C0 10.866 3.13401 14 7 14C10.866 14 14 10.866 14 7C14 3.13401 10.866 0 7 0ZM6.43077 9.51339L10.4141 5.16182L9.6765 4.48661L6.06196 8.43527L4.32194 6.53441L3.58431 7.20962L5.69315 9.51339L6.06196 9.91629L6.43077 9.51339Z" fill="currentColor"/>	
	</symbol>

	<symbol viewBox="0 0 18 14" id="arrow-next">
		<path d="M11.3333 1L17 7M17 7L11.3333 13M17 7H0" stroke="currentColor" stroke-width="1.4"/>	
	</symbol>

	<symbol viewBox="0 0 10 10" id="link-arrow">
		<path d="M1.72727 1H9M9 1V8.27273M9 1L1 9" stroke="currentColor"/>
	</symbol>

	<symbol viewBox="0 0 10 10" id="link-arrow-2">
		<path d="M1.72727 1H9M9 1V8.27273M9 1L1 9" stroke="currentColor" stroke-width="1.4"/>
	</symbol>

</svg>